<svg width="600" height="340" viewBox="0 0 600 340" fill="none" xmlns="http://www.w3.org/2000/svg">
<rect width="600" height="340" fill="#EEEEEE"/>
<g clip-path="url(#clip0_6738_1562)">
<rect width="600" height="1741" fill="white"/>
<rect x="600" y="340" width="600" height="340" transform="rotate(180 600 340)" fill="#2367F4"/>
<g style="mix-blend-mode:multiply" opacity="0.2">
<path d="M-5 -117.073C4.57826 -138.793 18.1748 -158.776 35.2676 -175.769C71.3226 -211.587 120.816 -231.969 171.84 -231.969C222.863 -231.969 272.357 -211.587 308.412 -175.769C344.467 -139.951 364.983 -90.7822 364.983 -40.094C364.983 10.5941 344.467 59.7628 308.412 95.581C272.357 131.399 222.863 151.781 171.84 151.781C120.816 151.781 71.3226 131.399 35.2676 95.581C18.1748 78.6005 4.57826 58.6171 -5 36.897L-5 339L601.988 339L601.988 -264L-5 -264L-5 -117.073Z" fill="#2367F4"/>
</g>
<g style="mix-blend-mode:multiply" opacity="0.2">
<path d="M353.621 -219.859C401.61 -172.186 428.912 -106.737 428.912 -39.2733C428.912 28.1902 401.61 93.6276 353.621 141.313C305.633 188.986 239.751 216.109 171.841 216.109C103.931 216.109 42.5286 190.783 -4.98633 146.064L-4.98633 339L602 339L602 -263.999L293.809 -263.999C315.66 -252.325 335.873 -237.503 353.621 -219.859Z" fill="#2367F4"/>
</g>
<g style="mix-blend-mode:multiply" opacity="0.2">
<path d="M510.587 -39.286C510.587 49.6082 474.617 135.837 411.369 198.67C348.133 261.49 261.322 297.236 171.84 297.236C109.187 297.236 47.8565 279.701 -5 247.621L-5 339L601.988 339L601.988 -264H423.946C479.34 -202.578 510.575 -122.09 510.575 -39.286H510.587Z" fill="#2367F4"/>
</g>
<g style="mix-blend-mode:multiply" opacity="0.2">
<path d="M490.655 277.434C467.055 300.878 440.991 321.477 413.082 339L602.001 339V94.4477C580.368 162.936 542.358 226.058 490.655 277.434Z" fill="#2367F4"/>
</g>
</g>
<defs>
<clipPath id="clip0_6738_1562">
<rect width="600" height="1741" fill="white"/>
</clipPath>
</defs>
</svg>
